<?xml version="1.0" encoding="UTF-8" standalone="no"?>
<!-- Generator: Adobe Illustrator 16.0.0, SVG Export Plug-In . SVG Version: 6.00 Build 0)  -->

<svg
   xmlns:dc="http://purl.org/dc/elements/1.1/"
   xmlns:cc="http://creativecommons.org/ns#"
   xmlns:rdf="http://www.w3.org/1999/02/22-rdf-syntax-ns#"
   xmlns:svg="http://www.w3.org/2000/svg"
   xmlns="http://www.w3.org/2000/svg"
   xmlns:sodipodi="http://sodipodi.sourceforge.net/DTD/sodipodi-0.dtd"
   xmlns:inkscape="http://www.inkscape.org/namespaces/inkscape"
   version="1.1"
   id="svg2"
   x="0px"
   y="0px"
   width="16"
   height="16"
   viewBox="35.188 31.512 16 16"
   enable-background="new 35.188 31.512 351.46 258.785"
   xml:space="preserve"
   inkscape:version="0.48.4 r9939"
   sodipodi:docname="my-icon-inactive-symbolic.svg"><metadata
     id="metadata3041"><rdf:RDF><cc:Work
         rdf:about=""><dc:format>image/svg+xml</dc:format><dc:type
           rdf:resource="http://purl.org/dc/dcmitype/StillImage" /><dc:title>generated by pstoedit version:3.44 from NVBadge_2D.eps</dc:title></cc:Work></rdf:RDF></metadata><defs
     id="defs3039"><clipPath
       clipPathUnits="userSpaceOnUse"
       id="clipPath3668"><rect
         height="3.3729413"
         id="rect3670"
         style="color:#bebebe;fill:#bebebe;fill-opacity:1;stroke:none;stroke-width:2;marker:none;visibility:visible;display:inline;overflow:visible"
         width="1.8762826"
         x="26.998718"
         y="221.50153" /></clipPath><clipPath
       clipPathUnits="userSpaceOnUse"
       id="clipPath3697"><path
         inkscape:connector-curvature="0"
         d="m 26.965789,221.32959 0,5.21591 0.579546,0 0,-1.15909 2.318182,0 0,-4.05682 -2.897728,0 z"
         id="path3699"
         style="color:#bebebe;fill:#bebebe;fill-opacity:1;fill-rule:nonzero;stroke:none;stroke-width:2;marker:none;visibility:visible;display:inline;overflow:visible" /></clipPath><clipPath
       clipPathUnits="userSpaceOnUse"
       id="clipPath6279-2-3"><rect
         height="6.3750005"
         id="rect6281-5-3"
         style="color:#bebebe;fill:#bebebe;fill-opacity:1;fill-rule:nonzero;stroke:none;stroke-width:2;marker:none;visibility:visible;display:inline;overflow:visible"
         width="3.8250003"
         x="26.85"
         y="220.75" /></clipPath></defs><sodipodi:namedview
     pagecolor="#ffffff"
     bordercolor="#666666"
     borderopacity="1"
     objecttolerance="10"
     gridtolerance="10"
     guidetolerance="10"
     inkscape:pageopacity="0"
     inkscape:pageshadow="2"
     inkscape:window-width="1920"
     inkscape:window-height="1022"
     id="namedview3037"
     showgrid="false"
     fit-margin-top="0"
     fit-margin-left="0"
     fit-margin-right="0"
     fit-margin-bottom="0"
     inkscape:zoom="36.155252"
     inkscape:cx="13.405728"
     inkscape:cy="5.3834916"
     inkscape:window-x="0"
     inkscape:window-y="27"
     inkscape:window-maximized="1"
     inkscape:current-layer="svg2"
     inkscape:snap-bbox="true"
     inkscape:bbox-nodes="true"
     inkscape:snap-page="true"
     inkscape:object-nodes="true" /><title
     id="title4">generated by pstoedit version:3.44 from NVBadge_2D.eps</title><path
     id="path21"
     d="m 36.822719,38.979088 c 0,0 1.446627,-2.13439 4.33506,-2.35521 v -0.77435 c -3.199306,0.25694 -5.969779,2.9666 -5.969779,2.9666 0,0 1.569151,4.53614 5.969779,4.95147 v -0.82308 c -3.22939,-0.40627 -4.33506,-3.96543 -4.33506,-3.96543 z m 4.33506,2.32852 v 0.75379 c -2.440701,-0.43513 -3.118181,-2.97226 -3.118181,-2.97226 0,0 1.171881,-1.2982 3.118181,-1.50872 v 0.82713 c -0.0015,0 -0.0025,-4.5e-4 -0.0037,-4.5e-4 -1.021523,-0.12259 -1.819534,0.83169 -1.819534,0.83169 0,0 0.447282,1.6065 1.823262,2.06882 m 0,-6.88632 v 1.42824 c 0.09392,-0.007 0.187835,-0.0133 0.282267,-0.0165 3.637267,-0.12259 6.007192,2.98312 6.007192,2.98312 0,0 -2.72194,3.30981 -5.557724,3.30981 -0.259897,0 -0.503209,-0.0241 -0.731735,-0.0646 v 0.88319 c 0.195421,0.0248 0.398041,0.0394 0.609468,0.0394 2.638886,0 4.547258,-1.3477 6.39514,-2.94276 0.306374,0.24537 1.560666,0.8423 1.818505,1.10362 -1.756986,1.47099 -5.851755,2.65675 -8.173211,2.65675 -0.223769,0 -0.438668,-0.0136 -0.649902,-0.0339 v 1.24099 H 51.188 V 34.421288 H 41.157779 z m 0,3.15913 v -0.95647 c 0.09295,-0.007 0.186614,-0.0115 0.282267,-0.0145 2.615551,-0.0821 4.331524,2.24766 4.331524,2.24766 0,0 -1.85341,2.57409 -3.840658,2.57409 -0.285996,0 -0.542421,-0.046 -0.773197,-0.12356 v -2.90006 c 1.018244,0.12303 1.223179,0.57282 1.835347,1.59332 l 1.361516,-1.14803 c 0,0 -0.993881,-1.30347 -2.669292,-1.30347 -0.182114,-7e-5 -0.356385,0.0127 -0.527507,0.031"
     style="fill:#bebebe;fill-opacity:1"
     inkscape:connector-curvature="0" /></svg>